<svg width="229" height="553" viewBox="0 0 229 553" fill="none" xmlns="http://www.w3.org/2000/svg">
<g id="Group">
<path id="Vector" d="M95.7 0.957819C98.4 2.05782 98.6 3.15782 96.4 6.55782C94.9 8.75782 94.8 11.8578 95.9 40.2578C96.5 57.4578 97.1 75.9578 97.1 81.4578C97.3 95.5578 98.6 97.6578 99.2 84.9578C99.5 79.1578 100.7 70.4578 101.9 65.5578C103.1 60.7578 104.4 53.7578 104.8 50.0578C105.5 43.6578 105.6 43.4578 108.5 43.1578C110.2 43.0578 112.5 43.7578 113.8 44.7578L116 46.4578L114 52.4578C112.8 55.7578 110.8 62.9578 109.5 68.4578C101.9 101.058 100 110.158 100.5 110.958C100.9 111.558 98.2 112.058 94.1 112.058C90.2 112.158 86.4 112.258 85.7 112.358C85.1 112.458 84.7 111.758 84.9 110.958C85.2 110.158 85.3 97.9578 85.1 83.9578C84.9 60.6578 84.6 57.5578 82.3 47.4578C78.3 30.2578 77.1 28.6578 67.7 28.4578C60.6 28.3578 47 26.0578 45.6 24.8578C45 24.3578 47.6 23.9578 51.6 23.9578L58.5 23.8578L54.6 20.4578C52.5 18.5578 47.8 15.0578 44.2 12.7578L37.8 8.45782L41.2 8.15782C43 7.95782 47.3 8.75782 50.8 9.75782C54.2 10.8578 57 11.4578 57 11.0578C57 10.6578 55.4 8.85782 53.5 6.95782C49.8 3.35782 49.7 1.55782 53.3 2.85782C54.5 3.35782 57.7 3.95782 60.3 4.35782C68.1 5.55782 75.3 9.35782 73.3 11.2578C73 11.6578 73.2 11.9578 73.8 11.9578C75.1 11.9578 77 18.1578 77 22.5578C77 24.2578 78.3 28.0578 80 31.0578C81.6 34.0578 83 37.2578 83 38.1578C83 39.1578 83.3 39.9578 83.7 39.9578C84.2 39.9578 84.4 35.3578 84.2 29.7578C84.1 24.0578 83.9 15.2578 83.7 10.2578C83.6 3.25783 83.8 0.857819 84.8 0.457819C86.9 -0.342181 93.2 -0.0421808 95.7 0.957819Z" fill="black"/>
<path id="Vector_2" d="M215 49.9578C213.1 51.6578 211.2 52.9578 210.8 52.9578C210.4 52.9578 210 53.2578 210 53.6578C210 54.1578 214.4 54.2578 219.7 54.1578C225.1 53.9578 229.2 54.0578 228.9 54.3578C228.6 54.6578 224.3 56.9578 219.4 59.3578C214.5 61.7578 209.6 64.4578 208.5 65.2578C206.7 66.6578 206.9 66.7578 212.3 67.4578C215.4 67.8578 218.2 68.5578 218.5 68.9578C219.4 70.3578 198.4 71.1578 194.1 69.8578C190.3 68.7578 189.8 68.7578 187.4 71.0578C184.3 73.8578 177.9 87.2578 174.5 97.9578C173.1 102.058 169.7 114.858 166.9 126.458C162.6 144.158 161.9 148.358 162.4 153.358L163 159.258L157.3 158.558C145.9 157.258 145.9 157.158 148.5 148.558C151 140.258 153.5 74.5578 151.6 67.2578C150.8 64.2578 151 63.8578 153.6 62.8578C155.8 61.9578 157.8 62.0578 162 63.0578C168 64.5578 167.8 64.2578 166.1 72.5578C165.6 75.3578 164.6 87.3578 164 99.0578C163.5 110.858 162.7 121.958 162.4 123.658C162.1 125.658 162.3 126.958 163 126.958C163.5 126.958 164 126.158 164 125.158C164 123.058 167 111.958 171.7 96.9578C175.5 84.8578 180 75.3578 184.7 69.1578C186.3 67.1578 188.1 63.2578 188.8 60.5578C191.5 49.9578 196.1 46.9578 209.7 46.9578L218.5 47.0578L215 49.9578Z" fill="black"/>
<path id="Vector_3" d="M42.5 88.9578C44.7 89.9578 49.8 91.7578 53.7 92.9578C59.6 94.6578 61.4 95.6578 63.7 98.6578C65.3 100.558 69.1 104.758 72.3 107.958C77.5 112.958 78.5 114.658 81.1 122.558C82.8 127.458 84.4 133.658 84.7 136.258C85 138.858 85.7 141.258 86.2 141.558C87.3 142.258 86.3 127.358 84.8 121.458C83.9 117.958 84 117.358 86.1 115.658C88.5 113.758 92.8 113.758 98.3 115.858C100.9 116.858 101 117.158 100.3 121.158C99.2 127.158 99.3 220.858 100.4 224.358L101.3 227.258L93.6 226.758C89.4 226.458 85.4 225.758 84.8 225.158C84.1 224.458 84.2 221.658 85.4 215.758C86.7 209.258 87 202.758 86.7 185.458C86.6 173.358 86.1 162.858 85.7 162.158C85.2 161.558 84.9 159.058 84.9 156.658C84.9 147.258 78.9 120.758 76 117.258C74.1 114.858 70.1 112.958 67 112.958C65.5 112.958 65.1 114.058 64.5 118.958C64.1 122.358 62.7 127.058 61.4 129.558C60.1 132.058 59 134.558 59 135.258C59 137.258 53.1 148.958 52.1 148.958C51.1 148.958 49.5 131.058 50.3 127.958C51.2 124.658 49.3 125.658 46.2 130.158C44.6 132.558 40.9 136.458 38 138.858L32.8 143.258L33.5 138.358C33.9 135.658 35.3 131.858 36.6 129.858C37.9 127.958 39 125.458 39 124.458C39 123.458 39.9 121.658 41 120.458L43 118.358L36.7 118.658C33.3 118.858 28.6 119.558 26.2 120.158C20.8 121.558 13.2 119.558 15.1 117.358C17.4 114.558 23 111.858 28.6 110.858C31.9 110.258 34.9 109.358 35.4 108.858C36.6 107.758 35.9 107.758 30 108.958C24.1 110.158 1.54227e-06 111.458 1.54227e-06 110.558C1.54227e-06 109.158 14.6 102.958 21 101.658C27.7 100.258 27.3 99.4578 19.5 98.6578L16.5 98.3578L20.3 96.6578C22.4 95.7578 27.8 94.6578 32.2 94.3578L40.3 93.6578L37.2 90.8578C35.4 89.2578 34 87.7578 34 87.4578C34 86.3578 38.7 87.1578 42.5 88.9578Z" fill="black"/>
<path id="Vector_4" d="M155 161.158C156.9 161.658 159.2 162.758 160 163.558C161.2 164.758 161.1 165.258 158.8 167.658C156.3 170.358 155 175.358 153.4 188.458C153.2 190.658 152.7 193.558 152.4 194.958C151.1 200.858 148 220.758 148 223.658C148 227.858 146.6 227.858 145 223.858C144 221.458 143.9 220.258 144.8 218.858C146.2 216.658 146.4 213.958 145.2 213.958C144 213.958 135 222.758 135 223.858C135 224.358 135.8 224.558 136.7 224.358C138 224.058 141.8 227.458 149.7 235.858C155.9 242.458 161 248.058 161 248.358C161 249.258 156.5 247.258 152.3 244.658C150.2 243.358 145.6 241.358 142.1 240.158C138.5 238.958 134.7 237.058 133.4 235.958C131.8 234.358 130.6 234.058 128.5 234.558C126 235.158 126.2 235.458 132.6 238.558C136.4 240.358 140.1 241.858 140.8 241.958C142.3 241.958 149 246.158 149 247.158C149 248.158 142.4 249.258 139.7 248.658C138.5 248.458 136.6 247.858 135.5 247.358C134.1 246.858 134.5 247.558 136.7 249.858C139.8 252.858 142.6 259.758 141.8 262.158C141.6 262.758 139.8 261.658 137.8 259.658C135.9 257.558 133.4 255.958 132.4 255.958C129.3 255.958 120.7 249.758 118.1 245.658L115.6 241.958L112.7 244.658C109.4 247.858 102.6 261.458 100.2 269.858C98.8 274.558 98.6 279.758 98.8 300.958C99 314.958 99.5 329.558 100.1 333.358C101.3 342.458 100.8 343.158 91.6 342.758C83.6 342.458 83.9 342.858 86 333.458C87.3 327.858 86.3 236.658 85 231.858C84.5 230.358 84.4 228.858 84.7 228.558C85.2 228.058 99.2 228.958 99.9 229.558C100.1 229.758 99.7 230.558 99.1 231.358C98.2 232.458 97.9 237.258 97.9 247.658C98.1 262.258 98.4 264.958 99.6 261.358C102.7 251.958 108.3 243.958 114.5 240.458C116 239.558 116.1 238.858 115.2 235.658C113.4 229.358 115.2 227.158 119.1 231.058C121.9 233.858 122.9 232.558 120.2 229.658C117.1 226.358 117.5 223.858 121.5 219.958C123.4 218.058 125 215.858 125 214.958C125 213.258 132.7 204.958 134.2 204.958C135.3 204.958 135.2 205.958 133.6 211.258C132.8 213.858 132.4 215.958 132.6 215.958C133.8 215.958 143.9 210.358 144 209.658C144 209.258 142.9 208.958 141.7 208.958C140.4 208.958 139.1 208.758 138.9 208.458C138.4 207.958 142.9 180.058 145.1 170.258C145.9 167.058 146.3 163.458 146.2 162.158C146 160.358 146.4 159.958 148.7 160.058C150.2 160.058 153.1 160.558 155 161.158Z" fill="black"/>
<path id="Vector_5" d="M137.3 265.358C139.4 266.158 141.3 266.958 141.6 267.258C141.8 267.458 141.4 270.558 140.6 274.058C139.8 277.558 138.4 288.358 137.5 297.958C136.5 307.558 135.6 315.758 135.3 316.158C135.1 316.658 135.4 316.958 135.9 316.958C136.5 316.958 137 316.558 137 316.158C137 315.758 139 312.258 141.5 308.458C144 304.758 146.5 299.858 147.2 297.658C148 295.158 149.2 293.458 150.7 292.858C152.1 292.358 152.9 291.558 152.6 291.058C151.5 289.358 153.2 286.958 155.5 286.958C157.9 286.958 162 291.158 162 293.558C162 294.958 163.4 295.458 169.7 296.458C173.3 297.058 176.5 298.658 188 305.858C190.2 307.258 188.9 307.958 183.2 308.658C179.3 309.058 177.4 308.858 175.4 307.558C171.6 305.058 171.2 306.458 174.9 309.458C177.8 311.958 181.8 321.458 180.4 322.858C180.1 323.158 178.8 321.958 177.4 320.258C175.8 318.158 173.7 316.758 171.5 316.358C169.7 316.058 167.4 314.858 166.4 313.858C163.8 310.958 163 311.558 163 316.458C163 318.958 162.7 320.958 162.2 320.958C160.9 320.858 156 313.658 156 311.758C156 307.958 154.2 311.058 153.8 315.658C153.5 318.358 152.7 321.758 152 323.458L150.8 326.458L149 321.458C148 318.658 147.1 314.958 147.1 313.158C147 311.458 146.6 309.958 146.1 309.958C144.5 309.958 139.9 316.258 137.3 321.858C134.5 328.258 132.6 344.158 134 350.258C134.9 354.658 134.3 355.258 129.2 354.458C117.4 352.658 116.8 352.158 119.3 346.158C121.3 341.558 121.7 338.558 123 322.958C123.6 316.058 124.2 308.658 124.5 306.458C126.4 289.658 127.1 276.658 126.6 271.258C126.2 267.858 126.1 264.958 126.2 264.958C131.9 264.158 134.2 264.258 137.3 265.358Z" fill="black"/>
<path id="Vector_6" d="M134.4 358.558C134.8 359.458 134.4 361.258 133.5 362.558C131.7 365.458 130.5 379.458 129 418.458C128.2 439.458 128.2 447.258 129.1 449.758C130.7 454.558 129.1 455.958 122 455.958C115 455.958 112.9 454.258 115.3 450.658C117.3 447.658 119.8 366.358 118 362.958C117.4 361.858 117.2 359.958 117.5 358.858C118 357.258 118.7 356.958 120.3 357.558C123.3 358.558 129 358.558 131.6 357.658C133.2 357.058 133.9 357.358 134.4 358.558Z" fill="black"/>
<path id="Vector_7" d="M129.76 460.221C130.16 461.076 129.76 462.785 128.86 464.019C127.06 466.772 125.86 480.063 124.36 517.087C123.56 537.023 123.56 544.427 124.46 546.801C126.06 551.358 124.46 552.687 117.36 552.687C110.36 552.687 108.26 551.073 110.66 547.655C112.66 544.807 115.16 467.626 113.36 464.398C112.76 463.354 112.56 461.55 112.86 460.506C113.36 458.987 114.06 458.702 115.66 459.272C118.66 460.221 124.36 460.221 126.96 459.367C128.56 458.797 129.26 459.082 129.76 460.221Z" fill="black"/>
<path id="Vector_8" d="M104.76 460.221C105.16 461.076 104.76 462.785 103.86 464.019C102.06 466.772 100.86 480.063 99.3604 517.087C98.5604 537.023 98.5604 544.427 99.4604 546.801C101.06 551.358 99.4604 552.687 92.3604 552.687C85.3604 552.687 83.2604 551.073 85.6604 547.655C87.6604 544.807 90.1604 467.626 88.3604 464.398C87.7604 463.354 87.5604 461.55 87.8604 460.506C88.3604 458.987 89.0604 458.702 90.6604 459.272C93.6604 460.221 99.3604 460.221 101.96 459.367C103.56 458.797 104.26 459.082 104.76 460.221Z" fill="black"/>
<path id="Vector_9" d="M84.0689 346.46C83.673 347.482 84.0689 349.524 84.9597 351C86.7412 354.291 87.9289 370.18 89.4135 414.441C90.2052 438.274 90.2052 447.126 89.3145 449.964C87.7309 455.411 89.3145 457 96.3416 457C103.27 457 105.348 455.071 102.973 450.985C100.993 447.58 98.519 355.312 100.3 351.454C100.894 350.205 101.092 348.049 100.795 346.801C100.3 344.985 99.6077 344.644 98.0241 345.325C95.0549 346.46 89.4135 346.46 86.8402 345.439C85.2566 344.758 84.5638 345.098 84.0689 346.46Z" fill="black"/>
</g>
</svg>
