<svg width="229" height="553" viewBox="0 0 229 553" fill="none" xmlns="http://www.w3.org/2000/svg">
<g id="Group">
<path id="Vector" d="M133.215 0.957819C130.515 2.05782 130.315 3.15782 132.515 6.55782C134.015 8.75782 134.115 11.8578 133.015 40.2578C132.415 57.4578 131.815 75.9578 131.815 81.4578C131.615 95.5578 130.315 97.6578 129.715 84.9578C129.415 79.1578 128.215 70.4578 127.015 65.5578C125.815 60.7578 124.515 53.7578 124.115 50.0578C123.415 43.6578 123.315 43.4578 120.415 43.1578C118.715 43.0578 116.415 43.7578 115.115 44.7578L112.915 46.4578L114.915 52.4578C116.115 55.7578 118.115 62.9578 119.415 68.4578C127.015 101.058 128.915 110.158 128.415 110.958C128.015 111.558 130.715 112.058 134.815 112.058C138.715 112.158 142.515 112.258 143.215 112.358C143.815 112.458 144.215 111.758 144.015 110.958C143.715 110.158 143.615 97.9578 143.815 83.9578C144.015 60.6578 144.315 57.5578 146.615 47.4578C150.615 30.2578 151.815 28.6578 161.215 28.4578C168.315 28.3578 181.915 26.0578 183.315 24.8578C183.915 24.3578 181.315 23.9578 177.315 23.9578L170.415 23.8578L174.315 20.4578C176.415 18.5578 181.115 15.0578 184.715 12.7578L191.115 8.45782L187.715 8.15782C185.915 7.95782 181.615 8.75782 178.115 9.75782C174.715 10.8578 171.915 11.4578 171.915 11.0578C171.915 10.6578 173.515 8.85782 175.415 6.95782C179.115 3.35782 179.215 1.55782 175.615 2.85782C174.415 3.35782 171.215 3.95782 168.615 4.35782C160.815 5.55782 153.615 9.35782 155.615 11.2578C155.915 11.6578 155.715 11.9578 155.115 11.9578C153.815 11.9578 151.915 18.1578 151.915 22.5578C151.915 24.2578 150.615 28.0578 148.915 31.0578C147.315 34.0578 145.915 37.2578 145.915 38.1578C145.915 39.1578 145.615 39.9578 145.215 39.9578C144.715 39.9578 144.515 35.3578 144.715 29.7578C144.815 24.0578 145.015 15.2578 145.215 10.2578C145.315 3.25783 145.115 0.857819 144.115 0.457819C142.015 -0.342181 135.715 -0.0421808 133.215 0.957819Z" fill="black"/>
<path id="Vector_2" d="M13.9155 49.9578C15.8155 51.6578 17.7155 52.9578 18.1155 52.9578C18.5155 52.9578 18.9155 53.2578 18.9155 53.6578C18.9155 54.1578 14.5155 54.2578 9.21547 54.1578C3.81547 53.9578 -0.284534 54.0578 0.015466 54.3578C0.315466 54.6578 4.61547 56.9578 9.51547 59.3578C14.4155 61.7578 19.3155 64.4578 20.4155 65.2578C22.2155 66.6578 22.0155 66.7578 16.6155 67.4578C13.5155 67.8578 10.7155 68.5578 10.4155 68.9578C9.51547 70.3578 30.5155 71.1578 34.8155 69.8578C38.6155 68.7578 39.1155 68.7578 41.5155 71.0578C44.6155 73.8578 51.0155 87.2578 54.4155 97.9578C55.8155 102.058 59.2155 114.858 62.0155 126.458C66.3155 144.158 67.0155 148.358 66.5155 153.358L65.9155 159.258L71.6155 158.558C83.0155 157.258 83.0155 157.158 80.4155 148.558C77.9155 140.258 75.4155 74.5578 77.3155 67.2578C78.1155 64.2578 77.9155 63.8578 75.3155 62.8578C73.1155 61.9578 71.1155 62.0578 66.9155 63.0578C60.9155 64.5578 61.1155 64.2578 62.8155 72.5578C63.3155 75.3578 64.3155 87.3578 64.9155 99.0578C65.4155 110.858 66.2155 121.958 66.5155 123.658C66.8155 125.658 66.6155 126.958 65.9155 126.958C65.4155 126.958 64.9155 126.158 64.9155 125.158C64.9155 123.058 61.9155 111.958 57.2155 96.9578C53.4155 84.8578 48.9155 75.3578 44.2155 69.1578C42.6155 67.1578 40.8155 63.2578 40.1155 60.5578C37.4155 49.9578 32.8155 46.9578 19.2155 46.9578L10.4155 47.0578L13.9155 49.9578Z" fill="black"/>
<path id="Vector_3" d="M186.415 88.9578C184.215 89.9578 179.115 91.7578 175.215 92.9578C169.315 94.6578 167.515 95.6578 165.215 98.6578C163.615 100.558 159.815 104.758 156.615 107.958C151.415 112.958 150.415 114.658 147.815 122.558C146.115 127.458 144.515 133.658 144.215 136.258C143.915 138.858 143.215 141.258 142.715 141.558C141.615 142.258 142.615 127.358 144.115 121.458C145.015 117.958 144.915 117.358 142.815 115.658C140.415 113.758 136.115 113.758 130.615 115.858C128.015 116.858 127.915 117.158 128.615 121.158C129.715 127.158 129.615 220.858 128.515 224.358L127.615 227.258L135.315 226.758C139.515 226.458 143.515 225.758 144.115 225.158C144.815 224.458 144.715 221.658 143.515 215.758C142.215 209.258 141.915 202.758 142.215 185.458C142.315 173.358 142.815 162.858 143.215 162.158C143.715 161.558 144.015 159.058 144.015 156.658C144.015 147.258 150.015 120.758 152.915 117.258C154.815 114.858 158.815 112.958 161.915 112.958C163.415 112.958 163.815 114.058 164.415 118.958C164.815 122.358 166.215 127.058 167.515 129.558C168.815 132.058 169.915 134.558 169.915 135.258C169.915 137.258 175.815 148.958 176.815 148.958C177.815 148.958 179.415 131.058 178.615 127.958C177.715 124.658 179.615 125.658 182.715 130.158C184.315 132.558 188.015 136.458 190.915 138.858L196.115 143.258L195.415 138.358C195.015 135.658 193.615 131.858 192.315 129.858C191.015 127.958 189.915 125.458 189.915 124.458C189.915 123.458 189.015 121.658 187.915 120.458L185.915 118.358L192.215 118.658C195.615 118.858 200.315 119.558 202.715 120.158C208.115 121.558 215.715 119.558 213.815 117.358C211.515 114.558 205.915 111.858 200.315 110.858C197.015 110.258 194.015 109.358 193.515 108.858C192.315 107.758 193.015 107.758 198.915 108.958C204.815 110.158 228.915 111.458 228.915 110.558C228.915 109.158 214.315 102.958 207.915 101.658C201.215 100.258 201.615 99.4578 209.415 98.6578L212.415 98.3578L208.615 96.6578C206.515 95.7578 201.115 94.6578 196.715 94.3578L188.615 93.6578L191.715 90.8578C193.515 89.2578 194.915 87.7578 194.915 87.4578C194.915 86.3578 190.215 87.1578 186.415 88.9578Z" fill="black"/>
<path id="Vector_4" d="M73.9155 161.158C72.0155 161.658 69.7155 162.758 68.9155 163.558C67.7155 164.758 67.8155 165.258 70.1155 167.658C72.6155 170.358 73.9155 175.358 75.5155 188.458C75.7155 190.658 76.2155 193.558 76.5155 194.958C77.8155 200.858 80.9155 220.758 80.9155 223.658C80.9155 227.858 82.3155 227.858 83.9155 223.858C84.9155 221.458 85.0155 220.258 84.1155 218.858C82.7155 216.658 82.5155 213.958 83.7155 213.958C84.9155 213.958 93.9155 222.758 93.9155 223.858C93.9155 224.358 93.1155 224.558 92.2155 224.358C90.9155 224.058 87.1155 227.458 79.2155 235.858C73.0155 242.458 67.9155 248.058 67.9155 248.358C67.9155 249.258 72.4155 247.258 76.6155 244.658C78.7155 243.358 83.3155 241.358 86.8155 240.158C90.4155 238.958 94.2155 237.058 95.5155 235.958C97.1155 234.358 98.3155 234.058 100.415 234.558C102.915 235.158 102.715 235.458 96.3155 238.558C92.5155 240.358 88.8155 241.858 88.1155 241.958C86.6155 241.958 79.9155 246.158 79.9155 247.158C79.9155 248.158 86.5155 249.258 89.2155 248.658C90.4155 248.458 92.3155 247.858 93.4155 247.358C94.8155 246.858 94.4155 247.558 92.2155 249.858C89.1155 252.858 86.3155 259.758 87.1155 262.158C87.3155 262.758 89.1155 261.658 91.1155 259.658C93.0155 257.558 95.5155 255.958 96.5155 255.958C99.6155 255.958 108.215 249.758 110.815 245.658L113.315 241.958L116.215 244.658C119.515 247.858 126.315 261.458 128.715 269.858C130.115 274.558 130.315 279.758 130.115 300.958C129.915 314.958 129.415 329.558 128.815 333.358C127.615 342.458 128.115 343.158 137.315 342.758C145.315 342.458 145.015 342.858 142.915 333.458C141.615 327.858 142.615 236.658 143.915 231.858C144.415 230.358 144.515 228.858 144.215 228.558C143.715 228.058 129.715 228.958 129.015 229.558C128.815 229.758 129.215 230.558 129.815 231.358C130.715 232.458 131.015 237.258 131.015 247.658C130.815 262.258 130.515 264.958 129.315 261.358C126.215 251.958 120.615 243.958 114.415 240.458C112.915 239.558 112.815 238.858 113.715 235.658C115.515 229.358 113.715 227.158 109.815 231.058C107.015 233.858 106.015 232.558 108.715 229.658C111.815 226.358 111.415 223.858 107.415 219.958C105.515 218.058 103.915 215.858 103.915 214.958C103.915 213.258 96.2155 204.958 94.7155 204.958C93.6155 204.958 93.7155 205.958 95.3155 211.258C96.1155 213.858 96.5155 215.958 96.3155 215.958C95.1155 215.958 85.0155 210.358 84.9155 209.658C84.9155 209.258 86.0155 208.958 87.2155 208.958C88.5155 208.958 89.8155 208.758 90.0155 208.458C90.5155 207.958 86.0155 180.058 83.8155 170.258C83.0155 167.058 82.6155 163.458 82.7155 162.158C82.9155 160.358 82.5155 159.958 80.2155 160.058C78.7155 160.058 75.8155 160.558 73.9155 161.158Z" fill="black"/>
<path id="Vector_5" d="M91.6155 265.358C89.5155 266.158 87.6155 266.958 87.3155 267.258C87.1155 267.458 87.5155 270.558 88.3155 274.058C89.1155 277.558 90.5155 288.358 91.4155 297.958C92.4155 307.558 93.3155 315.758 93.6155 316.158C93.8155 316.658 93.5155 316.958 93.0155 316.958C92.4155 316.958 91.9155 316.558 91.9155 316.158C91.9155 315.758 89.9155 312.258 87.4155 308.458C84.9155 304.758 82.4155 299.858 81.7155 297.658C80.9155 295.158 79.7155 293.458 78.2155 292.858C76.8155 292.358 76.0155 291.558 76.3155 291.058C77.4155 289.358 75.7155 286.958 73.4155 286.958C71.0155 286.958 66.9155 291.158 66.9155 293.558C66.9155 294.958 65.5155 295.458 59.2155 296.458C55.6155 297.058 52.4155 298.658 40.9155 305.858C38.7155 307.258 40.0155 307.958 45.7155 308.658C49.6155 309.058 51.5155 308.858 53.5155 307.558C57.3155 305.058 57.7155 306.458 54.0155 309.458C51.1155 311.958 47.1155 321.458 48.5155 322.858C48.8155 323.158 50.1155 321.958 51.5155 320.258C53.1155 318.158 55.2155 316.758 57.4155 316.358C59.2155 316.058 61.5155 314.858 62.5155 313.858C65.1155 310.958 65.9155 311.558 65.9155 316.458C65.9155 318.958 66.2155 320.958 66.7155 320.958C68.0155 320.858 72.9155 313.658 72.9155 311.758C72.9155 307.958 74.7155 311.058 75.1155 315.658C75.4155 318.358 76.2155 321.758 76.9155 323.458L78.1155 326.458L79.9155 321.458C80.9155 318.658 81.8155 314.958 81.8155 313.158C81.9155 311.458 82.3155 309.958 82.8155 309.958C84.4155 309.958 89.0155 316.258 91.6155 321.858C94.4155 328.258 96.3155 344.158 94.9155 350.258C94.0155 354.658 94.6155 355.258 99.7155 354.458C111.515 352.658 112.115 352.158 109.615 346.158C107.615 341.558 107.215 338.558 105.915 322.958C105.315 316.058 104.715 308.658 104.415 306.458C102.515 289.658 101.815 276.658 102.315 271.258C102.715 267.858 102.815 264.958 102.715 264.958C97.0155 264.158 94.7155 264.258 91.6155 265.358Z" fill="black"/>
<path id="Vector_6" d="M94.5155 358.558C94.1155 359.458 94.5155 361.258 95.4155 362.558C97.2155 365.458 98.4155 379.458 99.9155 418.458C100.715 439.458 100.715 447.258 99.8155 449.758C98.2155 454.558 99.8155 455.958 106.915 455.958C113.915 455.958 116.015 454.258 113.615 450.658C111.615 447.658 109.115 366.358 110.915 362.958C111.515 361.858 111.715 359.958 111.415 358.858C110.915 357.258 110.215 356.958 108.615 357.558C105.615 358.558 99.9155 358.558 97.3155 357.658C95.7155 357.058 95.0155 357.358 94.5155 358.558Z" fill="black"/>
<path id="Vector_7" d="M99.1551 460.221C98.7551 461.076 99.1551 462.785 100.055 464.019C101.855 466.772 103.055 480.063 104.555 517.087C105.355 537.023 105.355 544.427 104.455 546.801C102.855 551.358 104.455 552.687 111.555 552.687C118.555 552.687 120.655 551.073 118.255 547.655C116.255 544.807 113.755 467.626 115.555 464.398C116.155 463.354 116.355 461.55 116.055 460.506C115.555 458.987 114.855 458.702 113.255 459.272C110.255 460.221 104.555 460.221 101.955 459.367C100.355 458.797 99.6551 459.082 99.1551 460.221Z" fill="black"/>
<path id="Vector_8" d="M124.155 460.221C123.755 461.076 124.155 462.785 125.055 464.019C126.855 466.772 128.055 480.063 129.555 517.087C130.355 537.023 130.355 544.427 129.455 546.801C127.855 551.358 129.455 552.687 136.555 552.687C143.555 552.687 145.655 551.073 143.255 547.655C141.255 544.807 138.755 467.626 140.555 464.398C141.155 463.354 141.355 461.55 141.055 460.506C140.555 458.987 139.855 458.702 138.255 459.272C135.255 460.221 129.555 460.221 126.955 459.367C125.355 458.797 124.655 459.082 124.155 460.221Z" fill="black"/>
<path id="Vector_9" d="M144.847 346.46C145.242 347.482 144.847 349.524 143.956 351C142.174 354.291 140.987 370.18 139.502 414.441C138.71 438.274 138.71 447.126 139.601 449.964C141.185 455.411 139.601 457 132.574 457C125.646 457 123.567 455.071 125.943 450.985C127.922 447.58 130.397 355.312 128.615 351.454C128.021 350.205 127.823 348.049 128.12 346.801C128.615 344.985 129.308 344.644 130.891 345.325C133.861 346.46 139.502 346.46 142.075 345.439C143.659 344.758 144.352 345.098 144.847 346.46Z" fill="black"/>
</g>
</svg>
